<svg width="33" height="33" viewBox="0 0 33 33" fill="none" xmlns="http://www.w3.org/2000/svg">
<path d="M10.4 6.49316L22.4 13.3598" stroke="white" stroke-width="2" stroke-linecap="round" stroke-linejoin="round"/>
<path d="M28.4 11.466C28.3995 10.9984 28.2761 10.5391 28.0421 10.1342C27.8081 9.72937 27.4717 9.39317 27.0667 9.15935L17.7334 3.82602C17.328 3.59197 16.8681 3.46875 16.4 3.46875C15.9319 3.46875 15.4721 3.59197 15.0667 3.82602L5.73336 9.15935C5.32837 9.39317 4.992 9.72937 4.75797 10.1342C4.52395 10.5391 4.4005 10.9984 4.40002 11.466V22.1327C4.4005 22.6003 4.52395 23.0596 4.75797 23.4645C4.992 23.8693 5.32837 24.2055 5.73336 24.4393L15.0667 29.7727C15.4721 30.0067 15.9319 30.1299 16.4 30.1299C16.8681 30.1299 17.328 30.0067 17.7334 29.7727L27.0667 24.4393C27.4717 24.2055 27.8081 23.8693 28.0421 23.4645C28.2761 23.0596 28.3995 22.6003 28.4 22.1327V11.466Z" stroke="white" stroke-width="2" stroke-linecap="round" stroke-linejoin="round"/>
<path d="M4.80005 10.1328L16.4 16.7995L28.0001 10.1328" stroke="white" stroke-width="2" stroke-linecap="round" stroke-linejoin="round"/>
<path d="M16.4 30.1331V16.7998" stroke="white" stroke-width="2" stroke-linecap="round" stroke-linejoin="round"/>
</svg>
