<svg width="48" height="54" viewBox="0 0 48 54" fill="none" xmlns="http://www.w3.org/2000/svg">
<path d="M39.4933 6.92004C39.28 6.92004 39.0667 6.86671 38.88 6.76004C33.76 4.12004 29.3333 3.00004 24.0267 3.00004C18.7467 3.00004 13.7333 4.25337 9.17333 6.76004C8.53333 7.10671 7.73334 6.86671 7.36 6.22671C7.01333 5.58671 7.25333 4.76004 7.89333 4.41337C12.8533 1.72004 18.2933 0.333374 24.0267 0.333374C29.7067 0.333374 34.6667 1.58671 40.1067 4.38671C40.7733 4.73337 41.0133 5.53337 40.6667 6.17337C40.4267 6.65337 39.9733 6.92004 39.4933 6.92004ZM1.33333 20.92C1.06667 20.92 0.800001 20.84 0.560001 20.68C-0.0533326 20.2534 -0.186666 19.4267 0.24 18.8134C2.88 15.08 6.24 12.1467 10.24 10.0934C18.6133 5.77337 29.3333 5.74671 37.7333 10.0667C41.7333 12.12 45.0933 15.0267 47.7333 18.7334C48.16 19.32 48.0267 20.1734 47.4133 20.6C46.8 21.0267 45.9733 20.8934 45.5467 20.28C43.1467 16.92 40.1067 14.28 36.5067 12.44C28.8533 8.52004 19.0667 8.52004 11.44 12.4667C7.81333 14.3334 4.77333 17 2.37333 20.36C2.16 20.7334 1.76 20.92 1.33333 20.92ZM18 53.1067C17.6533 53.1067 17.3067 52.9734 17.0667 52.7067C14.7467 50.3867 13.4933 48.8934 11.7067 45.6667C9.86667 42.3867 8.90667 38.3867 8.90667 34.0934C8.90667 26.1734 15.68 19.72 24 19.72C32.32 19.72 39.0933 26.1734 39.0933 34.0934C39.0933 34.84 38.5067 35.4267 37.76 35.4267C37.0133 35.4267 36.4267 34.84 36.4267 34.0934C36.4267 27.64 30.8533 22.3867 24 22.3867C17.1467 22.3867 11.5733 27.64 11.5733 34.0934C11.5733 37.9334 12.4267 41.48 14.0533 44.36C15.76 47.4267 16.9333 48.7334 18.9867 50.8134C19.4933 51.3467 19.4933 52.1734 18.9867 52.7067C18.6933 52.9734 18.3467 53.1067 18 53.1067ZM37.12 48.1734C33.9467 48.1734 31.1467 47.3734 28.8533 45.8C24.88 43.1067 22.5067 38.7334 22.5067 34.0934C22.5067 33.3467 23.0933 32.76 23.84 32.76C24.5867 32.76 25.1733 33.3467 25.1733 34.0934C25.1733 37.8534 27.0933 41.4 30.3467 43.5867C32.24 44.8667 34.4533 45.48 37.12 45.48C37.76 45.48 38.8267 45.4 39.8933 45.2134C40.6133 45.08 41.3067 45.56 41.44 46.3067C41.5733 47.0267 41.0933 47.72 40.3467 47.8534C38.8267 48.1467 37.4933 48.1734 37.12 48.1734ZM31.76 53.6667C31.6533 53.6667 31.52 53.64 31.4133 53.6134C27.1733 52.44 24.4 50.8667 21.4933 48.0134C17.76 44.3067 15.7067 39.3734 15.7067 34.0934C15.7067 29.7734 19.3867 26.2534 23.92 26.2534C28.4533 26.2534 32.1333 29.7734 32.1333 34.0934C32.1333 36.9467 34.6133 39.2667 37.68 39.2667C40.7467 39.2667 43.2267 36.9467 43.2267 34.0934C43.2267 24.04 34.56 15.88 23.8933 15.88C16.32 15.88 9.38667 20.0934 6.26667 26.6267C5.22667 28.7867 4.69333 31.32 4.69333 34.0934C4.69333 36.1734 4.88 39.4534 6.48 43.72C6.74667 44.4134 6.4 45.1867 5.70667 45.4267C5.01333 45.6934 4.24 45.32 4 44.6534C2.69333 41.16 2.05333 37.6934 2.05333 34.0934C2.05333 30.8934 2.66667 27.9867 3.86667 25.4534C7.41333 18.0134 15.28 13.1867 23.8933 13.1867C36.0267 13.1867 45.8933 22.5467 45.8933 34.0667C45.8933 38.3867 42.2133 41.9067 37.68 41.9067C33.1467 41.9067 29.4667 38.3867 29.4667 34.0667C29.4667 31.2134 26.9867 28.8934 23.92 28.8934C20.8533 28.8934 18.3733 31.2134 18.3733 34.0667C18.3733 38.6267 20.1333 42.8934 23.36 46.0934C25.8933 48.6 28.32 49.9867 32.08 51.0267C32.8 51.2134 33.2 51.96 33.0133 52.6534C32.88 53.2667 32.32 53.6667 31.76 53.6667Z" fill="white" fill-opacity="0.44"/>
</svg>
