<svg width="24" height="26" viewBox="0 0 24 26" fill="none" xmlns="http://www.w3.org/2000/svg">
<path d="M20.6641 9.32812C21.1142 9.32812 21.5495 9.26437 21.9614 9.14543C21.9853 9.42712 21.9974 9.71213 21.9974 10V15.3313L23.8885 19.5448C23.9617 19.7079 23.9995 19.8847 23.9995 20.0635C23.9995 20.7631 23.4325 21.3301 22.7329 21.3301H1.26698C1.0886 21.3301 0.912235 21.2925 0.749422 21.2196C0.110929 20.9337 -0.174964 20.1844 0.110876 19.5459L1.99741 15.3319L1.99754 9.98277L2.00344 9.64955C2.18886 4.27525 6.60524 0 11.9974 0C13.9218 0 15.7194 0.543613 17.2447 1.48565C16.4707 2.3186 15.9974 3.43475 15.9974 4.66145C15.9974 7.23879 18.0867 9.32812 20.6641 9.32812ZM15.9418 22.6655C15.6235 24.5563 13.9787 25.9968 11.9974 25.9968C10.0161 25.9968 8.37122 24.5563 8.05303 22.6655H15.9418ZM20.6641 7.99479C22.505 7.99479 23.9974 6.5024 23.9974 4.66145C23.9974 2.82051 22.505 1.32812 20.6641 1.32812C18.8231 1.32812 17.3307 2.82051 17.3307 4.66145C17.3307 6.5024 18.8231 7.99479 20.6641 7.99479Z" fill="#EBEBEB"/>
</svg>
