<svg width="19" height="19" viewBox="0 0 19 19" fill="none" xmlns="http://www.w3.org/2000/svg">
<g clip-path="url(#clip0_20_349)">
<path d="M5.82501 4.00256L12.575 7.86506" stroke="#FF9D31" stroke-width="2" stroke-linecap="round" stroke-linejoin="round"/>
<path d="M15.95 6.8001C15.9497 6.53705 15.8803 6.2787 15.7487 6.05097C15.617 5.82323 15.4278 5.63412 15.2 5.5026L9.95001 2.5026C9.72198 2.37095 9.46332 2.30164 9.20001 2.30164C8.93671 2.30164 8.67804 2.37095 8.45001 2.5026L3.20001 5.5026C2.97221 5.63412 2.783 5.82323 2.65136 6.05097C2.51972 6.2787 2.45028 6.53705 2.45001 6.8001V12.8001C2.45028 13.0631 2.51972 13.3215 2.65136 13.5492C2.783 13.777 2.97221 13.9661 3.20001 14.0976L8.45001 17.0976C8.67804 17.2293 8.93671 17.2986 9.20001 17.2986C9.46332 17.2986 9.72198 17.2293 9.95001 17.0976L15.2 14.0976C15.4278 13.9661 15.617 13.777 15.7487 13.5492C15.8803 13.3215 15.9497 13.0631 15.95 12.8001V6.8001Z" stroke="#FF9D31" stroke-width="2" stroke-linecap="round" stroke-linejoin="round"/>
<path d="M2.67499 6.05005L9.19999 9.80005L15.725 6.05005" stroke="#FF9D31" stroke-width="2" stroke-linecap="round" stroke-linejoin="round"/>
<path d="M9.20001 17.3V9.80005" stroke="#FF9D31" stroke-width="2" stroke-linecap="round" stroke-linejoin="round"/>
</g>
<defs>
<clipPath id="clip0_20_349">
<rect width="18" height="18" fill="white" transform="translate(0.200012 0.800049)"/>
</clipPath>
</defs>
</svg>
