<svg width="171" height="111" viewBox="0 0 171 111" fill="none" xmlns="http://www.w3.org/2000/svg">
<path d="M67.6206 75H60.7104C60.5119 75 60.4126 74.9007 60.4126 74.7021L60.4722 32.7944C60.4722 32.6356 60.5516 32.5562 60.7104 32.5562H67.561C67.7199 32.5562 67.7993 32.6356 67.7993 32.7944L67.8589 74.7021C67.8589 74.9007 67.7795 75 67.6206 75ZM85.9623 75H79.8563C79.5386 75 79.3798 74.861 79.3798 74.583L79.3202 33.0327C79.3202 32.715 79.4791 32.5562 79.7968 32.5562H85.307L95.6127 56.5928L95.3148 33.0327C95.3148 32.715 95.4936 32.5562 95.851 32.5562H101.897C102.136 32.5562 102.255 32.715 102.255 33.0327L102.314 74.6426C102.314 74.8809 102.215 75 102.017 75H96.6552L86.0814 52.542L86.5282 74.5234C86.5282 74.8411 86.3396 75 85.9623 75ZM127.953 75H120.567C120.388 75 120.289 74.9007 120.269 74.7021L111.84 32.7944C111.8 32.6356 111.879 32.5562 112.078 32.5562H118.988C119.147 32.5562 119.246 32.6356 119.286 32.7944L124.29 60.7329L129.175 32.7944C129.214 32.6356 129.314 32.5562 129.472 32.5562H136.293C136.512 32.5562 136.591 32.6356 136.532 32.7944L128.251 74.7021C128.231 74.9007 128.132 75 127.953 75ZM156.243 75.5957C154.079 75.5957 152.083 75.0397 150.257 73.9277C148.45 72.8158 146.99 71.3364 145.878 69.4897C144.786 67.6232 144.24 65.578 144.24 63.354L144.3 44.0234C144.3 41.7598 144.846 39.7244 145.938 37.9175C147.01 36.0907 148.46 34.6312 150.286 33.5391C152.113 32.4271 154.099 31.8711 156.243 31.8711C158.467 31.8711 160.463 32.4172 162.23 33.5093C164.017 34.6014 165.447 36.0708 166.519 37.9175C167.611 39.7443 168.157 41.7796 168.157 44.0234L168.217 63.354C168.217 65.578 167.681 67.6133 166.609 69.46C165.516 71.3265 164.067 72.8158 162.26 73.9277C160.453 75.0397 158.447 75.5957 156.243 75.5957ZM156.243 68.2388C157.474 68.2388 158.547 67.7424 159.46 66.7495C160.374 65.7368 160.83 64.605 160.83 63.354L160.771 44.0234C160.771 42.6732 160.344 41.5314 159.49 40.5981C158.636 39.6649 157.554 39.1982 156.243 39.1982C154.992 39.1982 153.92 39.6549 153.027 40.5684C152.133 41.4818 151.686 42.6335 151.686 44.0234V63.354C151.686 64.6844 152.133 65.8361 153.027 66.8091C153.92 67.7622 154.992 68.2388 156.243 68.2388Z" fill="white" fill-opacity="0.21"/>
<path d="M29 25.3379C30.2834 25.3379 31.5439 25.6756 32.6562 26.3154L49.5732 35.9814L49.583 35.9873C50.6966 36.6302 51.6221 37.5547 52.2656 38.668C52.9091 39.7812 53.2486 41.0443 53.25 42.3301V61.6689C53.2487 62.9547 52.909 64.2178 52.2656 65.3311C51.6221 66.4444 50.6966 67.3687 49.583 68.0117L49.5732 68.0176L32.6572 77.6846L32.6562 77.6836C31.5944 78.2944 30.3977 78.629 29.1748 78.6582C29.117 78.6622 29.0588 78.667 29 78.667C28.9408 78.667 28.8823 78.6622 28.8242 78.6582C27.6014 78.6289 26.4045 78.2946 25.3428 77.6836L8.42676 68.0176L8.41699 68.0117C7.30336 67.3687 6.37791 66.4444 5.73438 65.3311C5.09098 64.2178 4.75134 62.9547 4.75 61.6689V42.3301L4.75391 42.0898C4.79465 40.8874 5.13104 39.7117 5.73438 38.668C6.37794 37.5547 7.30338 36.6302 8.41699 35.9873L8.42676 35.9814L25.3428 26.3145V26.3154C26.4553 25.6753 27.7163 25.3379 29 25.3379ZM9.75 61.6641L9.75488 61.8164C9.77859 62.1723 9.88434 62.5191 10.0635 62.8291C10.2682 63.1832 10.5628 63.4771 10.917 63.6816H10.916L26.5 72.5859V53.4473L9.75 43.8213V61.6641ZM41.3174 47.8037C41.1875 47.8955 41.0507 47.9751 40.9072 48.04L31.5 53.4463V72.5859L47.083 63.6816C47.4372 63.4771 47.7318 63.1832 47.9365 62.8291C48.1408 62.4756 48.2492 62.0743 48.25 61.666V43.8203L41.3174 47.8037ZM12.3057 39.5215L28.999 49.1162L34.8359 45.7607L18.123 36.1982L12.3057 39.5215ZM29 30.3379C28.5905 30.3379 28.1877 30.4457 27.833 30.6504L27.8232 30.6562L23.1602 33.3203L39.8574 42.875L45.6934 39.5215L30.1768 30.6562L30.167 30.6504C29.8123 30.4457 29.4095 30.3379 29 30.3379Z" fill="white" fill-opacity="0.21"/>
</svg>
