<svg width="19" height="19" viewBox="0 0 19 19" fill="none" xmlns="http://www.w3.org/2000/svg">
<g clip-path="url(#clip0_20_371)">
<path d="M9.20001 1.90002V16.9" stroke="#F2FF00" stroke-width="2" stroke-linecap="round" stroke-linejoin="round"/>
<path d="M12.95 4.15002H7.32501C6.62882 4.15002 5.96114 4.42659 5.46886 4.91887C4.97657 5.41115 4.70001 6.07883 4.70001 6.77502C4.70001 7.47122 4.97657 8.1389 5.46886 8.63118C5.96114 9.12346 6.62882 9.40002 7.32501 9.40002H11.075C11.7712 9.40002 12.4389 9.67659 12.9312 10.1689C13.4235 10.6612 13.7 11.3288 13.7 12.025C13.7 12.7212 13.4235 13.3889 12.9312 13.8812C12.4389 14.3735 11.7712 14.65 11.075 14.65H4.70001" stroke="#F2FF00" stroke-width="2" stroke-linecap="round" stroke-linejoin="round"/>
</g>
<defs>
<clipPath id="clip0_20_371">
<rect width="18" height="18" fill="white" transform="translate(0.200012 0.400024)"/>
</clipPath>
</defs>
</svg>
